<?xml version="1.0" encoding="utf-8"?>
<!-- Generator: Adobe Illustrator 26.1.0, SVG Export Plug-In . SVG Version: 6.00 Build 0)  -->
<svg version="1.1" id="game" xmlns="http://www.w3.org/2000/svg" xmlns:xlink="http://www.w3.org/1999/xlink" x="0px" y="0px"
	 viewBox="0 0 54.09 31.97" style="enable-background:new 0 0 54.09 31.97;" xml:space="preserve">
<style type="text/css">
	.st0{fill:url(#SVGID_1_);}
	.st1{fill:url(#SVGID_00000132089585376766257670000017053413853526886575_);}
</style>
<linearGradient id="SVGID_1_" gradientUnits="userSpaceOnUse" x1="55.3754" y1="16.4035" x2="24.7871" y2="15.6976">
	<stop  offset="0" style="stop-color:#FF9700"/>
	<stop  offset="1" style="stop-color:#A62F9B"/>
</linearGradient>
<path class="st0" d="M37.25,0.34c-3.79,0-7.26,1.35-9.97,3.59c3.2,3.04,5.2,7.31,5.2,12.06c0,4.75-2.01,9.02-5.2,12.06
	c2.71,2.24,6.18,3.59,9.97,3.59c8.64,0,15.65-7.01,15.65-15.65C52.9,7.34,45.89,0.34,37.25,0.34z"/>
<linearGradient id="SVGID_00000172402560484133402440000005449277902756190909_" gradientUnits="userSpaceOnUse" x1="30.9834" y1="16.2258" x2="1.3363" y2="15.7552">
	<stop  offset="0" style="stop-color:#FF9700"/>
	<stop  offset="1" style="stop-color:#A62F9B"/>
</linearGradient>
<path style="fill:url(#SVGID_00000172402560484133402440000005449277902756190909_);" d="M30.48,15.99c0-4.21-1.8-8-4.65-10.67
	c0,0,0,0,0,0c-2.62-2.45-6.13-3.97-9.99-3.97c-8.08,0-14.65,6.57-14.65,14.65s6.57,14.65,14.65,14.65c3.86,0,7.37-1.52,9.99-3.97
	c0,0,0,0,0,0C28.69,23.99,30.48,20.2,30.48,15.99z"/>
</svg>
